<?xml version="1.0" encoding="UTF-8"?>
<svg width="298px" height="198px" viewBox="0 0 298 198" version="1.1" xmlns="http://www.w3.org/2000/svg" xmlns:xlink="http://www.w3.org/1999/xlink">
    <title>Logo</title>
    <g id="Page-1" stroke="none" stroke-width="1" fill="none" fill-rule="evenodd">
        <g id="Logo" fill="#32D7AA" fill-rule="nonzero">
            <path d="M69.5,1 C107.88379,1 139,32.1162099 139,70.5 C139,108.88379 107.88379,140 69.5,140 C31.1162099,140 0,108.88379 0,70.5 C0,32.1162099 31.1162099,1 69.5,1 Z M69.5,19 C41.0573354,19 18,42.0573354 18,70.5 C18,98.9426646 41.0573354,122 69.5,122 C97.9426646,122 121,98.9426646 121,70.5 C121,42.0573354 97.9426646,19 69.5,19 Z" id="Oval"></path>
            <path d="M228.5,0 C266.88379,0 298,31.1162099 298,69.5 C298,107.88379 266.88379,139 228.5,139 C208.079244,139 189.715504,130.192865 176.999945,116.169761 L177,198 L159,198 L159,70 C159.000589,69.833925 159,69.6670313 159,69.5 C159,31.1162099 190.11621,0 228.5,0 Z M228.5,18 C200.057335,18 177,41.0573354 177,69.5 C177,97.9426646 200.057335,121 228.5,121 C256.942665,121 280,97.9426646 280,69.5 C280,41.0573354 256.942665,18 228.5,18 Z" id="Combined-Shape"></path>
        </g>
    </g>
</svg>